<svg width="145" height="30" viewBox="0 0 145 30" fill="none" xmlns="http://www.w3.org/2000/svg">
<path opacity="0.2" d="M15.0525 16.112C16.4685 16.376 17.6325 17.084 18.5445 18.236C19.4565 19.388 19.9125 20.708 19.9125 22.196C19.9125 23.54 19.5765 24.728 18.9045 25.76C18.2565 26.768 17.3085 27.56 16.0605 28.136C14.8125 28.712 13.3365 29 11.6325 29H0.7965V3.872H11.1645C12.8685 3.872 14.3325 4.148 15.5565 4.7C16.8045 5.252 17.7405 6.02 18.3645 7.004C19.0125 7.988 19.3365 9.104 19.3365 10.352C19.3365 11.816 18.9405 13.04 18.1485 14.024C17.3805 15.008 16.3485 15.704 15.0525 16.112ZM5.8365 14.24H10.4445C11.6445 14.24 12.5685 13.976 13.2165 13.448C13.8645 12.896 14.1885 12.116 14.1885 11.108C14.1885 10.1 13.8645 9.32 13.2165 8.768C12.5685 8.216 11.6445 7.94 10.4445 7.94H5.8365V14.24ZM10.9125 24.896C12.1365 24.896 13.0845 24.608 13.7565 24.032C14.4525 23.456 14.8005 22.64 14.8005 21.584C14.8005 20.504 14.4405 19.664 13.7205 19.064C13.0005 18.44 12.0285 18.128 10.8045 18.128H5.8365V24.896H10.9125ZM42.4693 18.596C42.4693 19.316 42.4213 19.964 42.3253 20.54H27.7453C27.8653 21.98 28.3693 23.108 29.2573 23.924C30.1453 24.74 31.2373 25.148 32.5333 25.148C34.4053 25.148 35.7373 24.344 36.5293 22.736H41.9653C41.3893 24.656 40.2853 26.24 38.6533 27.488C37.0213 28.712 35.0173 29.324 32.6413 29.324C30.7213 29.324 28.9933 28.904 27.4573 28.064C25.9453 27.2 24.7573 25.988 23.8933 24.428C23.0533 22.868 22.6333 21.068 22.6333 19.028C22.6333 16.964 23.0533 15.152 23.8933 13.592C24.7333 12.032 25.9093 10.832 27.4213 9.992C28.9333 9.152 30.6733 8.732 32.6413 8.732C34.5373 8.732 36.2293 9.14 37.7173 9.956C39.2293 10.772 40.3933 11.936 41.2093 13.448C42.0493 14.936 42.4693 16.652 42.4693 18.596ZM37.2493 17.156C37.2253 15.86 36.7573 14.828 35.8453 14.06C34.9333 13.268 33.8173 12.872 32.4973 12.872C31.2493 12.872 30.1933 13.256 29.3293 14.024C28.4893 14.768 27.9733 15.812 27.7813 17.156H37.2493ZM57.2001 8.768C59.5761 8.768 61.4961 9.524 62.9601 11.036C64.4241 12.524 65.1561 14.612 65.1561 17.3V29H60.1161V17.984C60.1161 16.4 59.7201 15.188 58.9281 14.348C58.1361 13.484 57.0561 13.052 55.6881 13.052C54.2961 13.052 53.1921 13.484 52.3761 14.348C51.5841 15.188 51.1881 16.4 51.1881 17.984V29H46.1481V9.056H51.1881V11.54C51.8601 10.676 52.7121 10.004 53.7441 9.524C54.8001 9.02 55.9521 8.768 57.2001 8.768ZM88.4888 18.596C88.4888 19.316 88.4408 19.964 88.3448 20.54H73.7648C73.8848 21.98 74.3888 23.108 75.2768 23.924C76.1648 24.74 77.2568 25.148 78.5528 25.148C80.4248 25.148 81.7568 24.344 82.5488 22.736H87.9848C87.4088 24.656 86.3048 26.24 84.6728 27.488C83.0408 28.712 81.0368 29.324 78.6608 29.324C76.7408 29.324 75.0128 28.904 73.4768 28.064C71.9648 27.2 70.7768 25.988 69.9128 24.428C69.0728 22.868 68.6528 21.068 68.6528 19.028C68.6528 16.964 69.0728 15.152 69.9128 13.592C70.7528 12.032 71.9288 10.832 73.4408 9.992C74.9528 9.152 76.6928 8.732 78.6608 8.732C80.5568 8.732 82.2488 9.14 83.7368 9.956C85.2488 10.772 86.4128 11.936 87.2288 13.448C88.0688 14.936 88.4888 16.652 88.4888 18.596ZM83.2688 17.156C83.2448 15.86 82.7768 14.828 81.8648 14.06C80.9528 13.268 79.8368 12.872 78.5168 12.872C77.2688 12.872 76.2128 13.256 75.3488 14.024C74.5088 14.768 73.9928 15.812 73.8008 17.156H83.2688ZM101.312 13.196H97.8196V29H92.7076V13.196H90.4396V9.056H92.7076V8.048C92.7076 5.6 93.4036 3.8 94.7956 2.648C96.1876 1.496 98.2876 0.955999 101.096 1.028V5.276C99.8716 5.252 99.0196 5.456 98.5396 5.888C98.0596 6.32 97.8196 7.1 97.8196 8.228V9.056H101.312V13.196ZM107.134 6.68C106.246 6.68 105.502 6.404 104.902 5.852C104.326 5.276 104.038 4.568 104.038 3.728C104.038 2.888 104.326 2.192 104.902 1.64C105.502 1.064 106.246 0.775999 107.134 0.775999C108.022 0.775999 108.754 1.064 109.33 1.64C109.93 2.192 110.23 2.888 110.23 3.728C110.23 4.568 109.93 5.276 109.33 5.852C108.754 6.404 108.022 6.68 107.134 6.68ZM109.618 9.056V29H104.578V9.056H109.618ZM120.465 13.196V22.844C120.465 23.516 120.621 24.008 120.933 24.32C121.269 24.608 121.821 24.752 122.589 24.752H124.929V29H121.761C117.513 29 115.389 26.936 115.389 22.808V13.196H113.013V9.056H115.389V4.124H120.465V9.056H124.929V13.196H120.465ZM136.186 29.324C134.554 29.324 133.09 29.036 131.794 28.46C130.498 27.86 129.466 27.056 128.698 26.048C127.954 25.04 127.546 23.924 127.474 22.7H132.55C132.646 23.468 133.018 24.104 133.666 24.608C134.338 25.112 135.166 25.364 136.15 25.364C137.11 25.364 137.854 25.172 138.382 24.788C138.934 24.404 139.21 23.912 139.21 23.312C139.21 22.664 138.874 22.184 138.202 21.872C137.554 21.536 136.51 21.176 135.07 20.792C133.582 20.432 132.358 20.06 131.398 19.676C130.462 19.292 129.646 18.704 128.95 17.912C128.278 17.12 127.942 16.052 127.942 14.708C127.942 13.604 128.254 12.596 128.878 11.684C129.526 10.772 130.438 10.052 131.614 9.524C132.814 8.996 134.218 8.732 135.826 8.732C138.202 8.732 140.098 9.332 141.514 10.532C142.93 11.708 143.71 13.304 143.854 15.32H139.03C138.958 14.528 138.622 13.904 138.022 13.448C137.446 12.968 136.666 12.728 135.682 12.728C134.77 12.728 134.062 12.896 133.558 13.232C133.078 13.568 132.838 14.036 132.838 14.636C132.838 15.308 133.174 15.824 133.846 16.184C134.518 16.52 135.562 16.868 136.978 17.228C138.418 17.588 139.606 17.96 140.542 18.344C141.478 18.728 142.282 19.328 142.954 20.144C143.65 20.936 144.01 21.992 144.034 23.312C144.034 24.464 143.71 25.496 143.062 26.408C142.438 27.32 141.526 28.04 140.326 28.568C139.15 29.072 137.77 29.324 136.186 29.324Z" fill="#E0E0E0"/>
</svg>
