<svg width="355" height="37" viewBox="0 0 355 37" fill="none" xmlns="http://www.w3.org/2000/svg">
<path opacity="0.2" d="M13.446 27L7.90195 17.208H5.52595V27H0.485953V1.872H9.91795C11.862 1.872 13.518 2.22 14.886 2.916C16.254 3.588 17.274 4.512 17.946 5.688C18.642 6.84 18.99 8.136 18.99 9.576C18.99 11.232 18.51 12.732 17.55 14.076C16.59 15.396 15.162 16.308 13.266 16.812L19.278 27H13.446ZM5.52595 13.428H9.73795C11.106 13.428 12.126 13.104 12.798 12.456C13.47 11.784 13.806 10.86 13.806 9.684C13.806 8.532 13.47 7.644 12.798 7.02C12.126 6.372 11.106 6.048 9.73795 6.048H5.52595V13.428ZM22.2525 16.956C22.2525 14.94 22.6485 13.152 23.4405 11.592C24.2565 10.032 25.3485 8.832 26.7165 7.992C28.1085 7.152 29.6565 6.732 31.3605 6.732C32.8485 6.732 34.1445 7.032 35.2485 7.632C36.3765 8.232 37.2765 8.988 37.9485 9.9V7.056H43.0245V27H37.9485V24.084C37.3005 25.02 36.4005 25.8 35.2485 26.424C34.1205 27.024 32.8125 27.324 31.3245 27.324C29.6445 27.324 28.1085 26.892 26.7165 26.028C25.3485 25.164 24.2565 23.952 23.4405 22.392C22.6485 20.808 22.2525 18.996 22.2525 16.956ZM37.9485 17.028C37.9485 15.804 37.7085 14.76 37.2285 13.896C36.7485 13.008 36.1005 12.336 35.2845 11.88C34.4685 11.4 33.5925 11.16 32.6565 11.16C31.7205 11.16 30.8565 11.388 30.0645 11.844C29.2725 12.3 28.6245 12.972 28.1205 13.86C27.6405 14.724 27.4005 15.756 27.4005 16.956C27.4005 18.156 27.6405 19.212 28.1205 20.124C28.6245 21.012 29.2725 21.696 30.0645 22.176C30.8805 22.656 31.7445 22.896 32.6565 22.896C33.5925 22.896 34.4685 22.668 35.2845 22.212C36.1005 21.732 36.7485 21.06 37.2285 20.196C37.7085 19.308 37.9485 18.252 37.9485 17.028ZM46.6509 17.028C46.6509 14.964 47.0709 13.164 47.9109 11.628C48.7509 10.068 49.9149 8.868 51.4029 8.028C52.8909 7.164 54.5949 6.732 56.5149 6.732C58.9869 6.732 61.0269 7.356 62.6349 8.604C64.2669 9.828 65.3589 11.556 65.9109 13.788H60.4749C60.1869 12.924 59.6949 12.252 58.9989 11.772C58.3269 11.268 57.4869 11.016 56.4789 11.016C55.0389 11.016 53.8989 11.544 53.0589 12.6C52.2189 13.632 51.7989 15.108 51.7989 17.028C51.7989 18.924 52.2189 20.4 53.0589 21.456C53.8989 22.488 55.0389 23.004 56.4789 23.004C58.5189 23.004 59.8509 22.092 60.4749 20.268H65.9109C65.3589 22.428 64.2669 24.144 62.6349 25.416C61.0029 26.688 58.9629 27.324 56.5149 27.324C54.5949 27.324 52.8909 26.904 51.4029 26.064C49.9149 25.2 48.7509 24 47.9109 22.464C47.0709 20.904 46.6509 19.092 46.6509 17.028ZM81.4111 27L74.6431 18.504V27H69.6031V0.36H74.6431V15.516L81.3391 7.056H87.8911L79.1071 17.064L87.9631 27H81.4111ZM98.2586 27.324C96.6266 27.324 95.1626 27.036 93.8666 26.46C92.5706 25.86 91.5386 25.056 90.7706 24.048C90.0266 23.04 89.6186 21.924 89.5466 20.7H94.6226C94.7186 21.468 95.0906 22.104 95.7386 22.608C96.4106 23.112 97.2386 23.364 98.2226 23.364C99.1826 23.364 99.9266 23.172 100.455 22.788C101.007 22.404 101.283 21.912 101.283 21.312C101.283 20.664 100.947 20.184 100.275 19.872C99.6266 19.536 98.5826 19.176 97.1426 18.792C95.6546 18.432 94.4306 18.06 93.4706 17.676C92.5346 17.292 91.7186 16.704 91.0226 15.912C90.3506 15.12 90.0146 14.052 90.0146 12.708C90.0146 11.604 90.3266 10.596 90.9506 9.684C91.5986 8.772 92.5106 8.052 93.6866 7.524C94.8866 6.996 96.2906 6.732 97.8986 6.732C100.275 6.732 102.171 7.332 103.587 8.532C105.003 9.708 105.783 11.304 105.927 13.32H101.103C101.031 12.528 100.695 11.904 100.095 11.448C99.5186 10.968 98.7386 10.728 97.7546 10.728C96.8426 10.728 96.1346 10.896 95.6306 11.232C95.1506 11.568 94.9106 12.036 94.9106 12.636C94.9106 13.308 95.2466 13.824 95.9186 14.184C96.5906 14.52 97.6346 14.868 99.0506 15.228C100.491 15.588 101.679 15.96 102.615 16.344C103.551 16.728 104.355 17.328 105.027 18.144C105.723 18.936 106.083 19.992 106.107 21.312C106.107 22.464 105.783 23.496 105.135 24.408C104.511 25.32 103.599 26.04 102.399 26.568C101.223 27.072 99.8426 27.324 98.2586 27.324ZM115.284 9.936C115.932 9.024 116.82 8.268 117.948 7.668C119.1 7.044 120.408 6.732 121.872 6.732C123.576 6.732 125.112 7.152 126.48 7.992C127.872 8.832 128.964 10.032 129.756 11.592C130.572 13.128 130.98 14.916 130.98 16.956C130.98 18.996 130.572 20.808 129.756 22.392C128.964 23.952 127.872 25.164 126.48 26.028C125.112 26.892 123.576 27.324 121.872 27.324C120.408 27.324 119.112 27.024 117.984 26.424C116.88 25.824 115.98 25.068 115.284 24.156V36.504H110.244V7.056H115.284V9.936ZM125.832 16.956C125.832 15.756 125.58 14.724 125.076 13.86C124.596 12.972 123.948 12.3 123.132 11.844C122.34 11.388 121.476 11.16 120.54 11.16C119.628 11.16 118.764 11.4 117.948 11.88C117.156 12.336 116.508 13.008 116.004 13.896C115.524 14.784 115.284 15.828 115.284 17.028C115.284 18.228 115.524 19.272 116.004 20.16C116.508 21.048 117.156 21.732 117.948 22.212C118.764 22.668 119.628 22.896 120.54 22.896C121.476 22.896 122.34 22.656 123.132 22.176C123.948 21.696 124.596 21.012 125.076 20.124C125.58 19.236 125.832 18.18 125.832 16.956ZM133.346 16.956C133.346 14.94 133.742 13.152 134.534 11.592C135.35 10.032 136.442 8.832 137.81 7.992C139.202 7.152 140.75 6.732 142.454 6.732C143.942 6.732 145.238 7.032 146.342 7.632C147.47 8.232 148.37 8.988 149.042 9.9V7.056H154.118V27H149.042V24.084C148.394 25.02 147.494 25.8 146.342 26.424C145.214 27.024 143.906 27.324 142.418 27.324C140.738 27.324 139.202 26.892 137.81 26.028C136.442 25.164 135.35 23.952 134.534 22.392C133.742 20.808 133.346 18.996 133.346 16.956ZM149.042 17.028C149.042 15.804 148.802 14.76 148.322 13.896C147.842 13.008 147.194 12.336 146.378 11.88C145.562 11.4 144.686 11.16 143.75 11.16C142.814 11.16 141.95 11.388 141.158 11.844C140.366 12.3 139.718 12.972 139.214 13.86C138.734 14.724 138.494 15.756 138.494 16.956C138.494 18.156 138.734 19.212 139.214 20.124C139.718 21.012 140.366 21.696 141.158 22.176C141.974 22.656 142.838 22.896 143.75 22.896C144.686 22.896 145.562 22.668 146.378 22.212C147.194 21.732 147.842 21.06 148.322 20.196C148.802 19.308 149.042 18.252 149.042 17.028ZM157.745 17.028C157.745 14.964 158.165 13.164 159.005 11.628C159.845 10.068 161.009 8.868 162.497 8.028C163.985 7.164 165.689 6.732 167.609 6.732C170.081 6.732 172.121 7.356 173.729 8.604C175.361 9.828 176.453 11.556 177.005 13.788H171.569C171.281 12.924 170.789 12.252 170.093 11.772C169.421 11.268 168.581 11.016 167.573 11.016C166.133 11.016 164.993 11.544 164.153 12.6C163.313 13.632 162.893 15.108 162.893 17.028C162.893 18.924 163.313 20.4 164.153 21.456C164.993 22.488 166.133 23.004 167.573 23.004C169.613 23.004 170.945 22.092 171.569 20.268H177.005C176.453 22.428 175.361 24.144 173.729 25.416C172.097 26.688 170.057 27.324 167.609 27.324C165.689 27.324 163.985 26.904 162.497 26.064C161.009 25.2 159.845 24 159.005 22.464C158.165 20.904 157.745 19.092 157.745 17.028ZM199.237 16.596C199.237 17.316 199.189 17.964 199.093 18.54H184.513C184.633 19.98 185.137 21.108 186.025 21.924C186.913 22.74 188.005 23.148 189.301 23.148C191.173 23.148 192.505 22.344 193.297 20.736H198.733C198.157 22.656 197.053 24.24 195.421 25.488C193.789 26.712 191.785 27.324 189.409 27.324C187.489 27.324 185.761 26.904 184.225 26.064C182.713 25.2 181.525 23.988 180.661 22.428C179.821 20.868 179.401 19.068 179.401 17.028C179.401 14.964 179.821 13.152 180.661 11.592C181.501 10.032 182.677 8.832 184.189 7.992C185.701 7.152 187.441 6.732 189.409 6.732C191.305 6.732 192.997 7.14 194.485 7.956C195.997 8.772 197.161 9.936 197.977 11.448C198.817 12.936 199.237 14.652 199.237 16.596ZM194.017 15.156C193.993 13.86 193.525 12.828 192.613 12.06C191.701 11.268 190.585 10.872 189.265 10.872C188.017 10.872 186.961 11.256 186.097 12.024C185.257 12.768 184.741 13.812 184.549 15.156H194.017ZM225.75 14.112C227.166 14.376 228.33 15.084 229.242 16.236C230.154 17.388 230.61 18.708 230.61 20.196C230.61 21.54 230.274 22.728 229.602 23.76C228.954 24.768 228.006 25.56 226.758 26.136C225.51 26.712 224.034 27 222.33 27H211.494V1.872H221.862C223.566 1.872 225.03 2.148 226.254 2.7C227.502 3.252 228.438 4.02 229.062 5.004C229.71 5.988 230.034 7.104 230.034 8.352C230.034 9.816 229.638 11.04 228.846 12.024C228.078 13.008 227.046 13.704 225.75 14.112ZM216.534 12.24H221.142C222.342 12.24 223.266 11.976 223.914 11.448C224.562 10.896 224.886 10.116 224.886 9.108C224.886 8.1 224.562 7.32 223.914 6.768C223.266 6.216 222.342 5.94 221.142 5.94H216.534V12.24ZM221.61 22.896C222.834 22.896 223.782 22.608 224.454 22.032C225.15 21.456 225.498 20.64 225.498 19.584C225.498 18.504 225.138 17.664 224.418 17.064C223.698 16.44 222.726 16.128 221.502 16.128H216.534V22.896H221.61ZM253.455 7.056V27H248.379V24.48C247.731 25.344 246.879 26.028 245.823 26.532C244.791 27.012 243.663 27.252 242.439 27.252C240.879 27.252 239.499 26.928 238.299 26.28C237.099 25.608 236.151 24.636 235.455 23.364C234.783 22.068 234.447 20.532 234.447 18.756V7.056H239.487V18.036C239.487 19.62 239.883 20.844 240.675 21.708C241.467 22.548 242.547 22.968 243.915 22.968C245.307 22.968 246.399 22.548 247.191 21.708C247.983 20.844 248.379 19.62 248.379 18.036V7.056H253.455ZM269.479 6.768C271.855 6.768 273.775 7.524 275.239 9.036C276.703 10.524 277.435 12.612 277.435 15.3V27H272.395V15.984C272.395 14.4 271.999 13.188 271.207 12.348C270.415 11.484 269.335 11.052 267.967 11.052C266.575 11.052 265.471 11.484 264.655 12.348C263.863 13.188 263.467 14.4 263.467 15.984V27H258.427V7.056H263.467V9.54C264.139 8.676 264.991 8.004 266.023 7.524C267.079 7.02 268.231 6.768 269.479 6.768ZM280.932 16.956C280.932 14.94 281.328 13.152 282.12 11.592C282.936 10.032 284.04 8.832 285.432 7.992C286.824 7.152 288.372 6.732 290.076 6.732C291.372 6.732 292.608 7.02 293.784 7.596C294.96 8.148 295.896 8.892 296.592 9.828V0.36H301.704V27H296.592V24.048C295.968 25.032 295.092 25.824 293.964 26.424C292.836 27.024 291.528 27.324 290.04 27.324C288.36 27.324 286.824 26.892 285.432 26.028C284.04 25.164 282.936 23.952 282.12 22.392C281.328 20.808 280.932 18.996 280.932 16.956ZM296.628 17.028C296.628 15.804 296.388 14.76 295.908 13.896C295.428 13.008 294.78 12.336 293.964 11.88C293.148 11.4 292.272 11.16 291.336 11.16C290.4 11.16 289.536 11.388 288.744 11.844C287.952 12.3 287.304 12.972 286.8 13.86C286.32 14.724 286.08 15.756 286.08 16.956C286.08 18.156 286.32 19.212 286.8 20.124C287.304 21.012 287.952 21.696 288.744 22.176C289.56 22.656 290.424 22.896 291.336 22.896C292.272 22.896 293.148 22.668 293.964 22.212C294.78 21.732 295.428 21.06 295.908 20.196C296.388 19.308 296.628 18.252 296.628 17.028ZM311.667 0.36V27H306.627V0.36H311.667ZM335.186 16.596C335.186 17.316 335.138 17.964 335.042 18.54H320.462C320.582 19.98 321.086 21.108 321.974 21.924C322.862 22.74 323.954 23.148 325.25 23.148C327.122 23.148 328.454 22.344 329.246 20.736H334.682C334.106 22.656 333.002 24.24 331.37 25.488C329.738 26.712 327.734 27.324 325.358 27.324C323.438 27.324 321.71 26.904 320.174 26.064C318.662 25.2 317.474 23.988 316.61 22.428C315.77 20.868 315.35 19.068 315.35 17.028C315.35 14.964 315.77 13.152 316.61 11.592C317.45 10.032 318.626 8.832 320.138 7.992C321.65 7.152 323.39 6.732 325.358 6.732C327.254 6.732 328.946 7.14 330.434 7.956C331.946 8.772 333.11 9.936 333.926 11.448C334.766 12.936 335.186 14.652 335.186 16.596ZM329.966 15.156C329.942 13.86 329.474 12.828 328.562 12.06C327.65 11.268 326.534 10.872 325.214 10.872C323.966 10.872 322.91 11.256 322.046 12.024C321.206 12.768 320.69 13.812 320.498 15.156H329.966ZM346.497 27.324C344.865 27.324 343.401 27.036 342.105 26.46C340.809 25.86 339.777 25.056 339.009 24.048C338.265 23.04 337.857 21.924 337.785 20.7H342.861C342.957 21.468 343.329 22.104 343.977 22.608C344.649 23.112 345.477 23.364 346.461 23.364C347.421 23.364 348.165 23.172 348.693 22.788C349.245 22.404 349.521 21.912 349.521 21.312C349.521 20.664 349.185 20.184 348.513 19.872C347.865 19.536 346.821 19.176 345.381 18.792C343.893 18.432 342.669 18.06 341.709 17.676C340.773 17.292 339.957 16.704 339.261 15.912C338.589 15.12 338.253 14.052 338.253 12.708C338.253 11.604 338.565 10.596 339.189 9.684C339.837 8.772 340.749 8.052 341.925 7.524C343.125 6.996 344.529 6.732 346.137 6.732C348.513 6.732 350.409 7.332 351.825 8.532C353.241 9.708 354.021 11.304 354.165 13.32H349.341C349.269 12.528 348.933 11.904 348.333 11.448C347.757 10.968 346.977 10.728 345.993 10.728C345.081 10.728 344.373 10.896 343.869 11.232C343.389 11.568 343.149 12.036 343.149 12.636C343.149 13.308 343.485 13.824 344.157 14.184C344.829 14.52 345.873 14.868 347.289 15.228C348.729 15.588 349.917 15.96 350.853 16.344C351.789 16.728 352.593 17.328 353.265 18.144C353.961 18.936 354.321 19.992 354.345 21.312C354.345 22.464 354.021 23.496 353.373 24.408C352.749 25.32 351.837 26.04 350.637 26.568C349.461 27.072 348.081 27.324 346.497 27.324Z" fill="#E0E0E0"/>
</svg>
